<svg width="53" height="35" viewBox="0 0 53 35" fill="none" xmlns="http://www.w3.org/2000/svg">
<path fill-rule="evenodd" clip-rule="evenodd" d="M29.2079 2.99498C28.6856 2.72163 28.0621 2.68236 27.6768 2.7374L27.5888 2.74997H11.5C10.8096 2.74997 10.25 2.19032 10.25 1.49997C10.25 0.809611 10.8096 0.249967 11.5 0.249967H27.419C28.1987 0.156588 29.3246 0.234404 30.3671 0.779953C31.5227 1.38468 32.4798 2.51989 32.7374 4.32319L32.75 4.41113V6.25H39.1058L46.9811 16.2254L46.9886 16.235L47 16.25H52.75V25.5C52.75 26.4669 52.3647 27.7921 51.2883 28.8794C50.1845 29.9944 48.4653 30.75 46 30.75V29.5C46 30.75 45.9988 30.75 45.9988 30.75H44.8573C44.2914 33.1853 42.1076 35 39.5 35C36.8924 35 34.7086 33.1853 34.1427 30.75H21.8573C21.2914 33.1853 19.1076 35 16.5 35C13.8924 35 11.7086 33.1853 11.1427 30.75H1.5C0.809644 30.75 0.25 30.1903 0.25 29.5C0.25 28.8096 0.809644 28.25 1.5 28.25H11.1427C11.7087 25.8146 13.8924 24 16.5 24C19.1076 24 21.2913 25.8146 21.8573 28.25H34.1427C34.7087 25.8146 36.8924 24 39.5 24C42.1076 24 44.2913 25.8146 44.8573 28.25H46C47.9347 28.25 48.9655 27.6722 49.5117 27.1205C50.0853 26.5412 50.25 25.8664 50.25 25.5V18.75H30.25V4.59512C30.0947 3.65537 29.6481 3.22535 29.2079 2.99498ZM43.8153 16.25L37.8942 8.75H32.75V16.25H43.8153ZM16.5 32.5C18.1569 32.5 19.5 31.1569 19.5 29.5C19.5 27.8431 18.1569 26.5 16.5 26.5C14.8431 26.5 13.5 27.8431 13.5 29.5C13.5 31.1569 14.8431 32.5 16.5 32.5ZM42.5 29.5C42.5 31.1569 41.1569 32.5 39.5 32.5C37.8431 32.5 36.5 31.1569 36.5 29.5C36.5 27.8431 37.8431 26.5 39.5 26.5C41.1569 26.5 42.5 27.8431 42.5 29.5Z" fill="black"/>
<path d="M12.25 7.5C11.5596 7.5 11 8.05964 11 8.75C11 9.44036 11.5596 10 12.25 10L18.75 10C19.4404 10 20 9.44036 20 8.75C20 8.05964 19.4404 7.5 18.75 7.5L12.25 7.5Z" fill="black"/>
<path d="M7 14.75C7 14.0596 7.55964 13.5 8.25 13.5L14.75 13.5C15.4404 13.5 16 14.0596 16 14.75C16 15.4404 15.4404 16 14.75 16L8.25 16C7.55964 16 7 15.4404 7 14.75Z" fill="black"/>
<path d="M4 20.75C4 20.0596 4.55964 19.5 5.25 19.5H11.75C12.4404 19.5 13 20.0596 13 20.75C13 21.4404 12.4404 22 11.75 22H5.25C4.55964 22 4 21.4404 4 20.75Z" fill="black"/>
</svg>
