<svg width="40" height="36" viewBox="0 0 40 36" fill="none" xmlns="http://www.w3.org/2000/svg">
<path d="M30.8796 25.8994C28.221 30.2699 23.4227 33.1875 17.9451 33.1875C9.58285 33.1875 2.80392 26.3878 2.80392 18C2.80392 9.61217 9.58285 2.8125 17.9451 2.8125C25.4566 2.8125 31.6905 8.299 32.8812 15.4948L29.3006 12.6215L27.8993 14.3785L34.2459 19.4712L40 14.3408L38.5097 12.6591L35.6726 15.1888C34.327 6.58294 26.9025 0 17.9451 0C8.03429 0 0 8.05887 0 18C0 27.9411 8.03429 36 17.9451 36C24.3959 36 30.0517 32.5859 33.2145 27.4608L30.8796 25.8994Z" fill="black"/>
<path d="M17.1855 22.5V20.7047H13.1683C13.2739 20.5305 13.4106 20.3516 13.5786 20.1682C13.7514 19.9848 14.157 19.6134 14.7953 19.0539C15.4337 18.4945 15.8752 18.0657 16.12 17.7677C16.4896 17.3183 16.7584 16.8895 16.9264 16.4814C17.0992 16.0687 17.1855 15.6354 17.1855 15.1814C17.1855 14.3835 16.888 13.7163 16.2928 13.1798C15.6977 12.6433 14.8793 12.375 13.8378 12.375C12.8875 12.375 12.0955 12.6066 11.462 13.0697C10.8285 13.5329 10.4517 14.2964 10.3317 15.3602L12.3475 15.5528C12.3859 14.9888 12.5299 14.5853 12.7795 14.3422C13.0291 14.0992 13.365 13.9777 13.7874 13.9777C14.2146 13.9777 14.5482 14.0946 14.7881 14.3285C15.0329 14.5577 15.1553 14.8879 15.1553 15.319C15.1553 15.7087 15.0161 16.1031 14.7377 16.502C14.5314 16.7909 13.9722 17.3412 13.0603 18.1529C11.9276 19.1571 11.1692 19.9642 10.7853 20.574C10.4013 21.1793 10.1709 21.8213 10.0941 22.5H17.1855Z" fill="black"/>
<path fill-rule="evenodd" clip-rule="evenodd" d="M22.5275 20.4709V22.5H24.4858V20.4709H25.7961V18.7719H24.4858V12.375H22.7867L18.2079 18.7788V20.4709H22.5275ZM22.5275 15.3258V18.7719H20.1013L22.5275 15.3258Z" fill="black"/>
</svg>
