<svg width="25" height="39" viewBox="0 0 25 39" fill="none" xmlns="http://www.w3.org/2000/svg">
<path fill-rule="evenodd" clip-rule="evenodd" d="M9.67196 37.1719C10.1177 38.6344 11.7148 39 12.4577 39C13.1886 39 14.76 38.6344 15.1985 37.1719C15.1985 37.1719 21.7766 23.7656 23.9693 17.0625C26.162 10.3594 23.8597 0.4875 12.4577 0C0.869108 0.4875 -1.4709 10.3594 0.757679 17.0625C2.98626 23.7656 9.67196 37.1719 9.67196 37.1719ZM12.2571 18.9429C15.9496 18.9429 18.9429 15.9496 18.9429 12.2571C18.9429 8.56472 15.9496 5.57143 12.2571 5.57143C8.56472 5.57143 5.57143 8.56472 5.57143 12.2571C5.57143 15.9496 8.56472 18.9429 12.2571 18.9429Z" fill="#2D2B2A"/>
</svg>
